<?xml version="1.0" encoding="UTF-8"?>
<svg width="1440px" height="740px" viewBox="0 0 1440 740" version="1.1" xmlns="http://www.w3.org/2000/svg" xmlns:xlink="http://www.w3.org/1999/xlink">
    <!-- Generator: Sketch 53.1 (72631) - https://sketchapp.com -->
    <title>登陆页</title>
    <desc>Created with Sketch.</desc>
    <defs>
        <linearGradient x1="62.2735346%" y1="17.2386198%" x2="50%" y2="102.64321%" id="linearGradient-1">
            <stop stop-color="#FFFFFF" offset="0%"></stop>
            <stop stop-color="#FFFFFF" stop-opacity="0" offset="100%"></stop>
        </linearGradient>
    </defs>
    <g id="登陆页" stroke="none" stroke-width="1" fill="none" fill-rule="evenodd">
        <g id="Group" transform="translate(-126.000000, -45.000000)">
            <circle id="椭圆形备份" fill="url(#linearGradient-1)" opacity="0.425013951" cx="188" cy="550" r="188"></circle>
            <circle id="椭圆形备份-2" fill="url(#linearGradient-1)" opacity="0.425013951" cx="1372.5" cy="193.5" r="193.5"></circle>
            <g id="点" transform="translate(1373.000000, 255.000000)" fill="#FFFFFF">
                <path d="M3.5,7 C1.56700338,7 0,5.43299662 0,3.5 C0,1.56700338 1.56700338,0 3.5,0 C5.43299662,0 7,1.56700338 7,3.5 C7,5.43299662 5.43299662,7 3.5,7 Z M72.5,7 C70.5670034,7 69,5.43299662 69,3.5 C69,1.56700338 70.5670034,0 72.5,0 C74.4329966,0 76,1.56700338 76,3.5 C76,5.43299662 74.4329966,7 72.5,7 Z M20.5,7 C18.5670034,7 17,5.43299662 17,3.5 C17,1.56700338 18.5670034,0 20.5,0 C22.4329966,0 24,1.56700338 24,3.5 C24,5.43299662 22.4329966,7 20.5,7 Z M90.5,7 C88.5670034,7 87,5.43299662 87,3.5 C87,1.56700338 88.5670034,0 90.5,0 C92.4329966,0 94,1.56700338 94,3.5 C94,5.43299662 92.4329966,7 90.5,7 Z M37.5,7 C35.5670034,7 34,5.43299662 34,3.5 C34,1.56700338 35.5670034,0 37.5,0 C39.4329966,0 41,1.56700338 41,3.5 C41,5.43299662 39.4329966,7 37.5,7 Z M107.5,7 C105.567003,7 104,5.43299662 104,3.5 C104,1.56700338 105.567003,0 107.5,0 C109.432997,0 111,1.56700338 111,3.5 C111,5.43299662 109.432997,7 107.5,7 Z M55.5,7 C53.5670034,7 52,5.43299662 52,3.5 C52,1.56700338 53.5670034,0 55.5,0 C57.4329966,0 59,1.56700338 59,3.5 C59,5.43299662 57.4329966,7 55.5,7 Z M124.5,7 C122.567003,7 121,5.43299662 121,3.5 C121,1.56700338 122.567003,0 124.5,0 C126.432997,0 128,1.56700338 128,3.5 C128,5.43299662 126.432997,7 124.5,7 Z" id="形状结合"></path>
                <path d="M3.5,83 C1.56700338,83 0,81.4329966 0,79.5 C0,77.5670034 1.56700338,76 3.5,76 C5.43299662,76 7,77.5670034 7,79.5 C7,81.4329966 5.43299662,83 3.5,83 Z M72.5,83 C70.5670034,83 69,81.4329966 69,79.5 C69,77.5670034 70.5670034,76 72.5,76 C74.4329966,76 76,77.5670034 76,79.5 C76,81.4329966 74.4329966,83 72.5,83 Z M20.5,83 C18.5670034,83 17,81.4329966 17,79.5 C17,77.5670034 18.5670034,76 20.5,76 C22.4329966,76 24,77.5670034 24,79.5 C24,81.4329966 22.4329966,83 20.5,83 Z M90.5,83 C88.5670034,83 87,81.4329966 87,79.5 C87,77.5670034 88.5670034,76 90.5,76 C92.4329966,76 94,77.5670034 94,79.5 C94,81.4329966 92.4329966,83 90.5,83 Z M37.5,83 C35.5670034,83 34,81.4329966 34,79.5 C34,77.5670034 35.5670034,76 37.5,76 C39.4329966,76 41,77.5670034 41,79.5 C41,81.4329966 39.4329966,83 37.5,83 Z M107.5,83 C105.567003,83 104,81.4329966 104,79.5 C104,77.5670034 105.567003,76 107.5,76 C109.432997,76 111,77.5670034 111,79.5 C111,81.4329966 109.432997,83 107.5,83 Z M55.5,83 C53.5670034,83 52,81.4329966 52,79.5 C52,77.5670034 53.5670034,76 55.5,76 C57.4329966,76 59,77.5670034 59,79.5 C59,81.4329966 57.4329966,83 55.5,83 Z M124.5,83 C122.567003,83 121,81.4329966 121,79.5 C121,77.5670034 122.567003,76 124.5,76 C126.432997,76 128,77.5670034 128,79.5 C128,81.4329966 126.432997,83 124.5,83 Z" id="形状结合备份-4"></path>
                <path d="M3.5,45 C1.56700338,45 0,43.4329966 0,41.5 C0,39.5670034 1.56700338,38 3.5,38 C5.43299662,38 7,39.5670034 7,41.5 C7,43.4329966 5.43299662,45 3.5,45 Z M72.5,45 C70.5670034,45 69,43.4329966 69,41.5 C69,39.5670034 70.5670034,38 72.5,38 C74.4329966,38 76,39.5670034 76,41.5 C76,43.4329966 74.4329966,45 72.5,45 Z M20.5,45 C18.5670034,45 17,43.4329966 17,41.5 C17,39.5670034 18.5670034,38 20.5,38 C22.4329966,38 24,39.5670034 24,41.5 C24,43.4329966 22.4329966,45 20.5,45 Z M90.5,45 C88.5670034,45 87,43.4329966 87,41.5 C87,39.5670034 88.5670034,38 90.5,38 C92.4329966,38 94,39.5670034 94,41.5 C94,43.4329966 92.4329966,45 90.5,45 Z M37.5,45 C35.5670034,45 34,43.4329966 34,41.5 C34,39.5670034 35.5670034,38 37.5,38 C39.4329966,38 41,39.5670034 41,41.5 C41,43.4329966 39.4329966,45 37.5,45 Z M107.5,45 C105.567003,45 104,43.4329966 104,41.5 C104,39.5670034 105.567003,38 107.5,38 C109.432997,38 111,39.5670034 111,41.5 C111,43.4329966 109.432997,45 107.5,45 Z M55.5,45 C53.5670034,45 52,43.4329966 52,41.5 C52,39.5670034 53.5670034,38 55.5,38 C57.4329966,38 59,39.5670034 59,41.5 C59,43.4329966 57.4329966,45 55.5,45 Z M124.5,45 C122.567003,45 121,43.4329966 121,41.5 C121,39.5670034 122.567003,38 124.5,38 C126.432997,38 128,39.5670034 128,41.5 C128,43.4329966 126.432997,45 124.5,45 Z" id="形状结合备份-2"></path>
                <path d="M3.5,121 C1.56700338,121 0,119.432997 0,117.5 C0,115.567003 1.56700338,114 3.5,114 C5.43299662,114 7,115.567003 7,117.5 C7,119.432997 5.43299662,121 3.5,121 Z M72.5,121 C70.5670034,121 69,119.432997 69,117.5 C69,115.567003 70.5670034,114 72.5,114 C74.4329966,114 76,115.567003 76,117.5 C76,119.432997 74.4329966,121 72.5,121 Z M20.5,121 C18.5670034,121 17,119.432997 17,117.5 C17,115.567003 18.5670034,114 20.5,114 C22.4329966,114 24,115.567003 24,117.5 C24,119.432997 22.4329966,121 20.5,121 Z M90.5,121 C88.5670034,121 87,119.432997 87,117.5 C87,115.567003 88.5670034,114 90.5,114 C92.4329966,114 94,115.567003 94,117.5 C94,119.432997 92.4329966,121 90.5,121 Z M37.5,121 C35.5670034,121 34,119.432997 34,117.5 C34,115.567003 35.5670034,114 37.5,114 C39.4329966,114 41,115.567003 41,117.5 C41,119.432997 39.4329966,121 37.5,121 Z M107.5,121 C105.567003,121 104,119.432997 104,117.5 C104,115.567003 105.567003,114 107.5,114 C109.432997,114 111,115.567003 111,117.5 C111,119.432997 109.432997,121 107.5,121 Z M55.5,121 C53.5670034,121 52,119.432997 52,117.5 C52,115.567003 53.5670034,114 55.5,114 C57.4329966,114 59,115.567003 59,117.5 C59,119.432997 57.4329966,121 55.5,121 Z M124.5,121 C122.567003,121 121,119.432997 121,117.5 C121,115.567003 122.567003,114 124.5,114 C126.432997,114 128,115.567003 128,117.5 C128,119.432997 126.432997,121 124.5,121 Z" id="形状结合备份-5"></path>
                <path d="M3.5,26 C1.56700338,26 0,24.4329966 0,22.5 C0,20.5670034 1.56700338,19 3.5,19 C5.43299662,19 7,20.5670034 7,22.5 C7,24.4329966 5.43299662,26 3.5,26 Z M72.5,26 C70.5670034,26 69,24.4329966 69,22.5 C69,20.5670034 70.5670034,19 72.5,19 C74.4329966,19 76,20.5670034 76,22.5 C76,24.4329966 74.4329966,26 72.5,26 Z M20.5,26 C18.5670034,26 17,24.4329966 17,22.5 C17,20.5670034 18.5670034,19 20.5,19 C22.4329966,19 24,20.5670034 24,22.5 C24,24.4329966 22.4329966,26 20.5,26 Z M90.5,26 C88.5670034,26 87,24.4329966 87,22.5 C87,20.5670034 88.5670034,19 90.5,19 C92.4329966,19 94,20.5670034 94,22.5 C94,24.4329966 92.4329966,26 90.5,26 Z M37.5,26 C35.5670034,26 34,24.4329966 34,22.5 C34,20.5670034 35.5670034,19 37.5,19 C39.4329966,19 41,20.5670034 41,22.5 C41,24.4329966 39.4329966,26 37.5,26 Z M107.5,26 C105.567003,26 104,24.4329966 104,22.5 C104,20.5670034 105.567003,19 107.5,19 C109.432997,19 111,20.5670034 111,22.5 C111,24.4329966 109.432997,26 107.5,26 Z M55.5,26 C53.5670034,26 52,24.4329966 52,22.5 C52,20.5670034 53.5670034,19 55.5,19 C57.4329966,19 59,20.5670034 59,22.5 C59,24.4329966 57.4329966,26 55.5,26 Z M124.5,26 C122.567003,26 121,24.4329966 121,22.5 C121,20.5670034 122.567003,19 124.5,19 C126.432997,19 128,20.5670034 128,22.5 C128,24.4329966 126.432997,26 124.5,26 Z" id="形状结合备份"></path>
                <path d="M3.5,102 C1.56700338,102 0,100.432997 0,98.5 C0,96.5670034 1.56700338,95 3.5,95 C5.43299662,95 7,96.5670034 7,98.5 C7,100.432997 5.43299662,102 3.5,102 Z M72.5,102 C70.5670034,102 69,100.432997 69,98.5 C69,96.5670034 70.5670034,95 72.5,95 C74.4329966,95 76,96.5670034 76,98.5 C76,100.432997 74.4329966,102 72.5,102 Z M20.5,102 C18.5670034,102 17,100.432997 17,98.5 C17,96.5670034 18.5670034,95 20.5,95 C22.4329966,95 24,96.5670034 24,98.5 C24,100.432997 22.4329966,102 20.5,102 Z M90.5,102 C88.5670034,102 87,100.432997 87,98.5 C87,96.5670034 88.5670034,95 90.5,95 C92.4329966,95 94,96.5670034 94,98.5 C94,100.432997 92.4329966,102 90.5,102 Z M37.5,102 C35.5670034,102 34,100.432997 34,98.5 C34,96.5670034 35.5670034,95 37.5,95 C39.4329966,95 41,96.5670034 41,98.5 C41,100.432997 39.4329966,102 37.5,102 Z M107.5,102 C105.567003,102 104,100.432997 104,98.5 C104,96.5670034 105.567003,95 107.5,95 C109.432997,95 111,96.5670034 111,98.5 C111,100.432997 109.432997,102 107.5,102 Z M55.5,102 C53.5670034,102 52,100.432997 52,98.5 C52,96.5670034 53.5670034,95 55.5,95 C57.4329966,95 59,96.5670034 59,98.5 C59,100.432997 57.4329966,102 55.5,102 Z M124.5,102 C122.567003,102 121,100.432997 121,98.5 C121,96.5670034 122.567003,95 124.5,95 C126.432997,95 128,96.5670034 128,98.5 C128,100.432997 126.432997,102 124.5,102 Z" id="形状结合备份-6"></path>
                <path d="M3.5,64 C1.56700338,64 0,62.4329966 0,60.5 C0,58.5670034 1.56700338,57 3.5,57 C5.43299662,57 7,58.5670034 7,60.5 C7,62.4329966 5.43299662,64 3.5,64 Z M72.5,64 C70.5670034,64 69,62.4329966 69,60.5 C69,58.5670034 70.5670034,57 72.5,57 C74.4329966,57 76,58.5670034 76,60.5 C76,62.4329966 74.4329966,64 72.5,64 Z M20.5,64 C18.5670034,64 17,62.4329966 17,60.5 C17,58.5670034 18.5670034,57 20.5,57 C22.4329966,57 24,58.5670034 24,60.5 C24,62.4329966 22.4329966,64 20.5,64 Z M90.5,64 C88.5670034,64 87,62.4329966 87,60.5 C87,58.5670034 88.5670034,57 90.5,57 C92.4329966,57 94,58.5670034 94,60.5 C94,62.4329966 92.4329966,64 90.5,64 Z M37.5,64 C35.5670034,64 34,62.4329966 34,60.5 C34,58.5670034 35.5670034,57 37.5,57 C39.4329966,57 41,58.5670034 41,60.5 C41,62.4329966 39.4329966,64 37.5,64 Z M107.5,64 C105.567003,64 104,62.4329966 104,60.5 C104,58.5670034 105.567003,57 107.5,57 C109.432997,57 111,58.5670034 111,60.5 C111,62.4329966 109.432997,64 107.5,64 Z M55.5,64 C53.5670034,64 52,62.4329966 52,60.5 C52,58.5670034 53.5670034,57 55.5,57 C57.4329966,57 59,58.5670034 59,60.5 C59,62.4329966 57.4329966,64 55.5,64 Z M124.5,64 C122.567003,64 121,62.4329966 121,60.5 C121,58.5670034 122.567003,57 124.5,57 C126.432997,57 128,58.5670034 128,60.5 C128,62.4329966 126.432997,64 124.5,64 Z" id="形状结合备份-3"></path>
                <path d="M3.5,140 C1.56700338,140 0,138.432997 0,136.5 C0,134.567003 1.56700338,133 3.5,133 C5.43299662,133 7,134.567003 7,136.5 C7,138.432997 5.43299662,140 3.5,140 Z M72.5,140 C70.5670034,140 69,138.432997 69,136.5 C69,134.567003 70.5670034,133 72.5,133 C74.4329966,133 76,134.567003 76,136.5 C76,138.432997 74.4329966,140 72.5,140 Z M20.5,140 C18.5670034,140 17,138.432997 17,136.5 C17,134.567003 18.5670034,133 20.5,133 C22.4329966,133 24,134.567003 24,136.5 C24,138.432997 22.4329966,140 20.5,140 Z M90.5,140 C88.5670034,140 87,138.432997 87,136.5 C87,134.567003 88.5670034,133 90.5,133 C92.4329966,133 94,134.567003 94,136.5 C94,138.432997 92.4329966,140 90.5,140 Z M37.5,140 C35.5670034,140 34,138.432997 34,136.5 C34,134.567003 35.5670034,133 37.5,133 C39.4329966,133 41,134.567003 41,136.5 C41,138.432997 39.4329966,140 37.5,140 Z M107.5,140 C105.567003,140 104,138.432997 104,136.5 C104,134.567003 105.567003,133 107.5,133 C109.432997,133 111,134.567003 111,136.5 C111,138.432997 109.432997,140 107.5,140 Z M55.5,140 C53.5670034,140 52,138.432997 52,136.5 C52,134.567003 53.5670034,133 55.5,133 C57.4329966,133 59,134.567003 59,136.5 C59,138.432997 57.4329966,140 55.5,140 Z M124.5,140 C122.567003,140 121,138.432997 121,136.5 C121,134.567003 122.567003,133 124.5,133 C126.432997,133 128,134.567003 128,136.5 C128,138.432997 126.432997,140 124.5,140 Z" id="形状结合备份-7"></path>
            </g>
            <g id="点备份" transform="translate(286.000000, 655.000000) rotate(90.000000) translate(-286.000000, -655.000000) translate(193.000000, 565.000000)" fill="#BDC8D6" opacity="0.158714658">
                <path d="M25.0117188,9.5 C22.5199653,9.5 20.5,7.48528137 20.5,5 C20.5,2.51471863 22.5199653,0.5 25.0117188,0.5 C27.5034722,0.5 29.5234375,2.51471863 29.5234375,5 C29.5234375,7.48528137 27.5034722,9.5 25.0117188,9.5 Z M113.957031,9.5 C111.465278,9.5 109.445312,7.48528137 109.445312,5 C109.445312,2.51471863 111.465278,0.5 113.957031,0.5 C116.448785,0.5 118.46875,2.51471863 118.46875,5 C118.46875,7.48528137 116.448785,9.5 113.957031,9.5 Z M46.9257812,9.5 C44.4340278,9.5 42.4140625,7.48528137 42.4140625,5 C42.4140625,2.51471863 44.4340278,0.5 46.9257812,0.5 C49.4175347,0.5 51.4375,2.51471863 51.4375,5 C51.4375,7.48528137 49.4175347,9.5 46.9257812,9.5 Z M137.160156,9.5 C134.668403,9.5 132.648438,7.48528137 132.648438,5 C132.648438,2.51471863 134.668403,0.5 137.160156,0.5 C139.65191,0.5 141.671875,2.51471863 141.671875,5 C141.671875,7.48528137 139.65191,9.5 137.160156,9.5 Z M68.8398438,9.5 C66.3480903,9.5 64.328125,7.48528137 64.328125,5 C64.328125,2.51471863 66.3480903,0.5 68.8398438,0.5 C71.3315972,0.5 73.3515625,2.51471863 73.3515625,5 C73.3515625,7.48528137 71.3315972,9.5 68.8398438,9.5 Z M159.074219,9.5 C156.582465,9.5 154.5625,7.48528137 154.5625,5 C154.5625,2.51471863 156.582465,0.5 159.074219,0.5 C161.565972,0.5 163.585938,2.51471863 163.585938,5 C163.585938,7.48528137 161.565972,9.5 159.074219,9.5 Z M92.0429688,9.5 C89.5512153,9.5 87.53125,7.48528137 87.53125,5 C87.53125,2.51471863 89.5512153,0.5 92.0429688,0.5 C94.5347222,0.5 96.5546875,2.51471863 96.5546875,5 C96.5546875,7.48528137 94.5347222,9.5 92.0429688,9.5 Z M180.988281,9.5 C178.496528,9.5 176.476562,7.48528137 176.476562,5 C176.476562,2.51471863 178.496528,0.5 180.988281,0.5 C183.480035,0.5 185.5,2.51471863 185.5,5 C185.5,7.48528137 183.480035,9.5 180.988281,9.5 Z" id="形状结合"></path>
                <path d="M25.0117188,107.5 C22.5199653,107.5 20.5,105.485281 20.5,103 C20.5,100.514719 22.5199653,98.5 25.0117188,98.5 C27.5034722,98.5 29.5234375,100.514719 29.5234375,103 C29.5234375,105.485281 27.5034722,107.5 25.0117188,107.5 Z M113.957031,107.5 C111.465278,107.5 109.445312,105.485281 109.445312,103 C109.445312,100.514719 111.465278,98.5 113.957031,98.5 C116.448785,98.5 118.46875,100.514719 118.46875,103 C118.46875,105.485281 116.448785,107.5 113.957031,107.5 Z M46.9257812,107.5 C44.4340278,107.5 42.4140625,105.485281 42.4140625,103 C42.4140625,100.514719 44.4340278,98.5 46.9257812,98.5 C49.4175347,98.5 51.4375,100.514719 51.4375,103 C51.4375,105.485281 49.4175347,107.5 46.9257812,107.5 Z M137.160156,107.5 C134.668403,107.5 132.648438,105.485281 132.648438,103 C132.648438,100.514719 134.668403,98.5 137.160156,98.5 C139.65191,98.5 141.671875,100.514719 141.671875,103 C141.671875,105.485281 139.65191,107.5 137.160156,107.5 Z M68.8398438,107.5 C66.3480903,107.5 64.328125,105.485281 64.328125,103 C64.328125,100.514719 66.3480903,98.5 68.8398438,98.5 C71.3315972,98.5 73.3515625,100.514719 73.3515625,103 C73.3515625,105.485281 71.3315972,107.5 68.8398438,107.5 Z M159.074219,107.5 C156.582465,107.5 154.5625,105.485281 154.5625,103 C154.5625,100.514719 156.582465,98.5 159.074219,98.5 C161.565972,98.5 163.585938,100.514719 163.585938,103 C163.585938,105.485281 161.565972,107.5 159.074219,107.5 Z M92.0429688,107.5 C89.5512153,107.5 87.53125,105.485281 87.53125,103 C87.53125,100.514719 89.5512153,98.5 92.0429688,98.5 C94.5347222,98.5 96.5546875,100.514719 96.5546875,103 C96.5546875,105.485281 94.5347222,107.5 92.0429688,107.5 Z M180.988281,107.5 C178.496528,107.5 176.476562,105.485281 176.476562,103 C176.476562,100.514719 178.496528,98.5 180.988281,98.5 C183.480035,98.5 185.5,100.514719 185.5,103 C185.5,105.485281 183.480035,107.5 180.988281,107.5 Z" id="形状结合备份-4"></path>
                <path d="M25.0117188,57.5 C22.5199653,57.5 20.5,55.4852814 20.5,53 C20.5,50.5147186 22.5199653,48.5 25.0117188,48.5 C27.5034722,48.5 29.5234375,50.5147186 29.5234375,53 C29.5234375,55.4852814 27.5034722,57.5 25.0117188,57.5 Z M113.957031,57.5 C111.465278,57.5 109.445312,55.4852814 109.445312,53 C109.445312,50.5147186 111.465278,48.5 113.957031,48.5 C116.448785,48.5 118.46875,50.5147186 118.46875,53 C118.46875,55.4852814 116.448785,57.5 113.957031,57.5 Z M46.9257812,57.5 C44.4340278,57.5 42.4140625,55.4852814 42.4140625,53 C42.4140625,50.5147186 44.4340278,48.5 46.9257812,48.5 C49.4175347,48.5 51.4375,50.5147186 51.4375,53 C51.4375,55.4852814 49.4175347,57.5 46.9257812,57.5 Z M137.160156,57.5 C134.668403,57.5 132.648438,55.4852814 132.648438,53 C132.648438,50.5147186 134.668403,48.5 137.160156,48.5 C139.65191,48.5 141.671875,50.5147186 141.671875,53 C141.671875,55.4852814 139.65191,57.5 137.160156,57.5 Z M68.8398438,57.5 C66.3480903,57.5 64.328125,55.4852814 64.328125,53 C64.328125,50.5147186 66.3480903,48.5 68.8398438,48.5 C71.3315972,48.5 73.3515625,50.5147186 73.3515625,53 C73.3515625,55.4852814 71.3315972,57.5 68.8398438,57.5 Z M159.074219,57.5 C156.582465,57.5 154.5625,55.4852814 154.5625,53 C154.5625,50.5147186 156.582465,48.5 159.074219,48.5 C161.565972,48.5 163.585938,50.5147186 163.585938,53 C163.585938,55.4852814 161.565972,57.5 159.074219,57.5 Z M92.0429688,57.5 C89.5512153,57.5 87.53125,55.4852814 87.53125,53 C87.53125,50.5147186 89.5512153,48.5 92.0429688,48.5 C94.5347222,48.5 96.5546875,50.5147186 96.5546875,53 C96.5546875,55.4852814 94.5347222,57.5 92.0429688,57.5 Z M180.988281,57.5 C178.496528,57.5 176.476562,55.4852814 176.476562,53 C176.476562,50.5147186 178.496528,48.5 180.988281,48.5 C183.480035,48.5 185.5,50.5147186 185.5,53 C185.5,55.4852814 183.480035,57.5 180.988281,57.5 Z" id="形状结合备份-2"></path>
                <path d="M5.01171875,155.5 C2.51996529,155.5 0.5,153.485281 0.5,151 C0.5,148.514719 2.51996529,146.5 5.01171875,146.5 C7.50347221,146.5 9.5234375,148.514719 9.5234375,151 C9.5234375,153.485281 7.50347221,155.5 5.01171875,155.5 Z M93.9570312,155.5 C91.4652778,155.5 89.4453125,153.485281 89.4453125,151 C89.4453125,148.514719 91.4652778,146.5 93.9570312,146.5 C96.4487847,146.5 98.46875,148.514719 98.46875,151 C98.46875,153.485281 96.4487847,155.5 93.9570312,155.5 Z M26.9257812,155.5 C24.4340278,155.5 22.4140625,153.485281 22.4140625,151 C22.4140625,148.514719 24.4340278,146.5 26.9257812,146.5 C29.4175347,146.5 31.4375,148.514719 31.4375,151 C31.4375,153.485281 29.4175347,155.5 26.9257812,155.5 Z M117.160156,155.5 C114.668403,155.5 112.648438,153.485281 112.648438,151 C112.648438,148.514719 114.668403,146.5 117.160156,146.5 C119.65191,146.5 121.671875,148.514719 121.671875,151 C121.671875,153.485281 119.65191,155.5 117.160156,155.5 Z M48.8398438,155.5 C46.3480903,155.5 44.328125,153.485281 44.328125,151 C44.328125,148.514719 46.3480903,146.5 48.8398438,146.5 C51.3315972,146.5 53.3515625,148.514719 53.3515625,151 C53.3515625,153.485281 51.3315972,155.5 48.8398438,155.5 Z M139.074219,155.5 C136.582465,155.5 134.5625,153.485281 134.5625,151 C134.5625,148.514719 136.582465,146.5 139.074219,146.5 C141.565972,146.5 143.585938,148.514719 143.585938,151 C143.585938,153.485281 141.565972,155.5 139.074219,155.5 Z M72.0429688,155.5 C69.5512153,155.5 67.53125,153.485281 67.53125,151 C67.53125,148.514719 69.5512153,146.5 72.0429688,146.5 C74.5347222,146.5 76.5546875,148.514719 76.5546875,151 C76.5546875,153.485281 74.5347222,155.5 72.0429688,155.5 Z M160.988281,155.5 C158.496528,155.5 156.476562,153.485281 156.476562,151 C156.476562,148.514719 158.496528,146.5 160.988281,146.5 C163.480035,146.5 165.5,148.514719 165.5,151 C165.5,153.485281 163.480035,155.5 160.988281,155.5 Z" id="形状结合备份-5"></path>
                <path d="M25.0117188,33.5 C22.5199653,33.5 20.5,31.4852814 20.5,29 C20.5,26.5147186 22.5199653,24.5 25.0117188,24.5 C27.5034722,24.5 29.5234375,26.5147186 29.5234375,29 C29.5234375,31.4852814 27.5034722,33.5 25.0117188,33.5 Z M113.957031,33.5 C111.465278,33.5 109.445312,31.4852814 109.445312,29 C109.445312,26.5147186 111.465278,24.5 113.957031,24.5 C116.448785,24.5 118.46875,26.5147186 118.46875,29 C118.46875,31.4852814 116.448785,33.5 113.957031,33.5 Z M46.9257812,33.5 C44.4340278,33.5 42.4140625,31.4852814 42.4140625,29 C42.4140625,26.5147186 44.4340278,24.5 46.9257812,24.5 C49.4175347,24.5 51.4375,26.5147186 51.4375,29 C51.4375,31.4852814 49.4175347,33.5 46.9257812,33.5 Z M137.160156,33.5 C134.668403,33.5 132.648438,31.4852814 132.648438,29 C132.648438,26.5147186 134.668403,24.5 137.160156,24.5 C139.65191,24.5 141.671875,26.5147186 141.671875,29 C141.671875,31.4852814 139.65191,33.5 137.160156,33.5 Z M68.8398438,33.5 C66.3480903,33.5 64.328125,31.4852814 64.328125,29 C64.328125,26.5147186 66.3480903,24.5 68.8398438,24.5 C71.3315972,24.5 73.3515625,26.5147186 73.3515625,29 C73.3515625,31.4852814 71.3315972,33.5 68.8398438,33.5 Z M159.074219,33.5 C156.582465,33.5 154.5625,31.4852814 154.5625,29 C154.5625,26.5147186 156.582465,24.5 159.074219,24.5 C161.565972,24.5 163.585938,26.5147186 163.585938,29 C163.585938,31.4852814 161.565972,33.5 159.074219,33.5 Z M92.0429688,33.5 C89.5512153,33.5 87.53125,31.4852814 87.53125,29 C87.53125,26.5147186 89.5512153,24.5 92.0429688,24.5 C94.5347222,24.5 96.5546875,26.5147186 96.5546875,29 C96.5546875,31.4852814 94.5347222,33.5 92.0429688,33.5 Z M180.988281,33.5 C178.496528,33.5 176.476562,31.4852814 176.476562,29 C176.476562,26.5147186 178.496528,24.5 180.988281,24.5 C183.480035,24.5 185.5,26.5147186 185.5,29 C185.5,31.4852814 183.480035,33.5 180.988281,33.5 Z" id="形状结合备份"></path>
                <path d="M25.0117188,131.5 C22.5199653,131.5 20.5,129.485281 20.5,127 C20.5,124.514719 22.5199653,122.5 25.0117188,122.5 C27.5034722,122.5 29.5234375,124.514719 29.5234375,127 C29.5234375,129.485281 27.5034722,131.5 25.0117188,131.5 Z M113.957031,131.5 C111.465278,131.5 109.445312,129.485281 109.445312,127 C109.445312,124.514719 111.465278,122.5 113.957031,122.5 C116.448785,122.5 118.46875,124.514719 118.46875,127 C118.46875,129.485281 116.448785,131.5 113.957031,131.5 Z M46.9257812,131.5 C44.4340278,131.5 42.4140625,129.485281 42.4140625,127 C42.4140625,124.514719 44.4340278,122.5 46.9257812,122.5 C49.4175347,122.5 51.4375,124.514719 51.4375,127 C51.4375,129.485281 49.4175347,131.5 46.9257812,131.5 Z M137.160156,131.5 C134.668403,131.5 132.648438,129.485281 132.648438,127 C132.648438,124.514719 134.668403,122.5 137.160156,122.5 C139.65191,122.5 141.671875,124.514719 141.671875,127 C141.671875,129.485281 139.65191,131.5 137.160156,131.5 Z M68.8398438,131.5 C66.3480903,131.5 64.328125,129.485281 64.328125,127 C64.328125,124.514719 66.3480903,122.5 68.8398438,122.5 C71.3315972,122.5 73.3515625,124.514719 73.3515625,127 C73.3515625,129.485281 71.3315972,131.5 68.8398438,131.5 Z M159.074219,131.5 C156.582465,131.5 154.5625,129.485281 154.5625,127 C154.5625,124.514719 156.582465,122.5 159.074219,122.5 C161.565972,122.5 163.585938,124.514719 163.585938,127 C163.585938,129.485281 161.565972,131.5 159.074219,131.5 Z M92.0429688,131.5 C89.5512153,131.5 87.53125,129.485281 87.53125,127 C87.53125,124.514719 89.5512153,122.5 92.0429688,122.5 C94.5347222,122.5 96.5546875,124.514719 96.5546875,127 C96.5546875,129.485281 94.5347222,131.5 92.0429688,131.5 Z M180.988281,131.5 C178.496528,131.5 176.476562,129.485281 176.476562,127 C176.476562,124.514719 178.496528,122.5 180.988281,122.5 C183.480035,122.5 185.5,124.514719 185.5,127 C185.5,129.485281 183.480035,131.5 180.988281,131.5 Z" id="形状结合备份-6"></path>
                <path d="M25.0117188,81.5 C22.5199653,81.5 20.5,79.4852814 20.5,77 C20.5,74.5147186 22.5199653,72.5 25.0117188,72.5 C27.5034722,72.5 29.5234375,74.5147186 29.5234375,77 C29.5234375,79.4852814 27.5034722,81.5 25.0117188,81.5 Z M113.957031,81.5 C111.465278,81.5 109.445312,79.4852814 109.445312,77 C109.445312,74.5147186 111.465278,72.5 113.957031,72.5 C116.448785,72.5 118.46875,74.5147186 118.46875,77 C118.46875,79.4852814 116.448785,81.5 113.957031,81.5 Z M46.9257812,81.5 C44.4340278,81.5 42.4140625,79.4852814 42.4140625,77 C42.4140625,74.5147186 44.4340278,72.5 46.9257812,72.5 C49.4175347,72.5 51.4375,74.5147186 51.4375,77 C51.4375,79.4852814 49.4175347,81.5 46.9257812,81.5 Z M137.160156,81.5 C134.668403,81.5 132.648438,79.4852814 132.648438,77 C132.648438,74.5147186 134.668403,72.5 137.160156,72.5 C139.65191,72.5 141.671875,74.5147186 141.671875,77 C141.671875,79.4852814 139.65191,81.5 137.160156,81.5 Z M68.8398438,81.5 C66.3480903,81.5 64.328125,79.4852814 64.328125,77 C64.328125,74.5147186 66.3480903,72.5 68.8398438,72.5 C71.3315972,72.5 73.3515625,74.5147186 73.3515625,77 C73.3515625,79.4852814 71.3315972,81.5 68.8398438,81.5 Z M159.074219,81.5 C156.582465,81.5 154.5625,79.4852814 154.5625,77 C154.5625,74.5147186 156.582465,72.5 159.074219,72.5 C161.565972,72.5 163.585938,74.5147186 163.585938,77 C163.585938,79.4852814 161.565972,81.5 159.074219,81.5 Z M92.0429688,81.5 C89.5512153,81.5 87.53125,79.4852814 87.53125,77 C87.53125,74.5147186 89.5512153,72.5 92.0429688,72.5 C94.5347222,72.5 96.5546875,74.5147186 96.5546875,77 C96.5546875,79.4852814 94.5347222,81.5 92.0429688,81.5 Z M180.988281,81.5 C178.496528,81.5 176.476562,79.4852814 176.476562,77 C176.476562,74.5147186 178.496528,72.5 180.988281,72.5 C183.480035,72.5 185.5,74.5147186 185.5,77 C185.5,79.4852814 183.480035,81.5 180.988281,81.5 Z" id="形状结合备份-3"></path>
                <path d="M5.01171875,179.5 C2.51996529,179.5 0.5,177.485281 0.5,175 C0.5,172.514719 2.51996529,170.5 5.01171875,170.5 C7.50347221,170.5 9.5234375,172.514719 9.5234375,175 C9.5234375,177.485281 7.50347221,179.5 5.01171875,179.5 Z M93.9570312,179.5 C91.4652778,179.5 89.4453125,177.485281 89.4453125,175 C89.4453125,172.514719 91.4652778,170.5 93.9570312,170.5 C96.4487847,170.5 98.46875,172.514719 98.46875,175 C98.46875,177.485281 96.4487847,179.5 93.9570312,179.5 Z M26.9257812,179.5 C24.4340278,179.5 22.4140625,177.485281 22.4140625,175 C22.4140625,172.514719 24.4340278,170.5 26.9257812,170.5 C29.4175347,170.5 31.4375,172.514719 31.4375,175 C31.4375,177.485281 29.4175347,179.5 26.9257812,179.5 Z M117.160156,179.5 C114.668403,179.5 112.648438,177.485281 112.648438,175 C112.648438,172.514719 114.668403,170.5 117.160156,170.5 C119.65191,170.5 121.671875,172.514719 121.671875,175 C121.671875,177.485281 119.65191,179.5 117.160156,179.5 Z M48.8398438,179.5 C46.3480903,179.5 44.328125,177.485281 44.328125,175 C44.328125,172.514719 46.3480903,170.5 48.8398438,170.5 C51.3315972,170.5 53.3515625,172.514719 53.3515625,175 C53.3515625,177.485281 51.3315972,179.5 48.8398438,179.5 Z M139.074219,179.5 C136.582465,179.5 134.5625,177.485281 134.5625,175 C134.5625,172.514719 136.582465,170.5 139.074219,170.5 C141.565972,170.5 143.585938,172.514719 143.585938,175 C143.585938,177.485281 141.565972,179.5 139.074219,179.5 Z M72.0429688,179.5 C69.5512153,179.5 67.53125,177.485281 67.53125,175 C67.53125,172.514719 69.5512153,170.5 72.0429688,170.5 C74.5347222,170.5 76.5546875,172.514719 76.5546875,175 C76.5546875,177.485281 74.5347222,179.5 72.0429688,179.5 Z M160.988281,179.5 C158.496528,179.5 156.476562,177.485281 156.476562,175 C156.476562,172.514719 158.496528,170.5 160.988281,170.5 C163.480035,170.5 165.5,172.514719 165.5,175 C165.5,177.485281 163.480035,179.5 160.988281,179.5 Z" id="形状结合备份-7"></path>
            </g>
        </g>
    </g>
</svg>